<svg width="39" height="35" viewBox="0 0 39 35" fill="none" xmlns="http://www.w3.org/2000/svg">
<path d="M0.0706363 26.8204C0.187091 26.6342 0.368454 26.6209 0.622364 26.7824C6.41645 30.1264 12.7222 31.8079 19.5338 31.8079C24.0794 31.8079 28.5638 30.9586 32.9948 29.2771L33.495 29.0548C33.7145 28.9579 33.8673 28.8952 33.9608 28.8477C34.3216 28.7071 34.5832 28.7774 34.797 29.0548C34.9917 29.3265 34.9421 29.5849 34.6061 29.8148C34.1995 30.115 33.6515 30.4646 33.0025 30.8503C31.0227 32.0264 28.7967 32.9365 26.3359 33.5882C23.9885 34.2164 21.5694 34.5408 19.1386 34.5534C15.5324 34.5534 12.1132 33.9264 8.88873 32.6724C5.70767 31.4332 2.77736 29.6329 0.238636 27.3581C0.0782727 27.2422 0 27.1244 0 27.0085C0 26.9344 0.0305452 26.8679 0.0782725 26.8014L0.0706363 26.8204ZM10.5305 16.9613C10.5305 15.3653 10.9257 14.0068 11.7123 12.8725C12.5026 11.7477 13.5775 10.8946 14.9635 10.3151C16.2349 9.7812 17.7603 9.4031 19.6025 9.1713C20.2249 9.101 21.2463 9.0079 22.6571 8.8958V8.3068C22.6571 6.8381 22.4967 5.8387 22.1836 5.3352C21.7025 4.6531 20.9427 4.3073 19.887 4.3073H19.6006C18.837 4.3814 18.1765 4.6151 17.6171 5.035C17.0557 5.46392 16.6724 6.08339 16.5404 6.7754C16.4468 7.2504 16.212 7.5107 15.8512 7.5848L11.8325 7.0832C11.4335 6.9863 11.2388 6.7982 11.2388 6.4638C11.2388 6.3935 11.2503 6.3232 11.2732 6.2301C11.6722 4.1819 12.6382 2.6562 14.175 1.6625C15.729 0.6859 17.5197 0.1159 19.5739 0H20.4349C23.0675 0 25.1485 0.6859 26.628 2.0444C26.8475 2.2781 27.0614 2.5194 27.2771 2.8006C27.468 3.0647 27.636 3.3022 27.7238 3.5169C27.8441 3.7278 27.9663 4.0394 28.0369 4.4194C28.1343 4.8241 28.2049 5.0882 28.2526 5.2288C28.2965 5.3922 28.35 5.7038 28.3748 6.2054C28.3863 6.7032 28.4054 6.9844 28.4054 7.0813V15.4527C28.4054 16.0493 28.4989 16.5965 28.6669 17.0962C28.8349 17.5902 28.9991 17.9531 29.1671 18.1659L29.9842 19.2318C30.1065 19.4007 30.1798 19.5999 30.1961 19.8075C30.1961 20.0013 30.1025 20.1647 29.9135 20.3015C28.0006 21.9678 26.9487 22.8703 26.7845 23.0147C26.523 23.2294 26.187 23.2522 25.7823 23.0888C25.4884 22.8424 25.2086 22.5798 24.9442 22.3022L24.4516 21.7493C24.3543 21.6296 24.1825 21.4187 23.9438 21.0805L23.4665 20.3908C22.176 21.7968 20.9122 22.6803 19.6445 23.0375C18.8542 23.275 17.8996 23.3947 16.7255 23.3947C14.9577 23.3947 13.4782 22.8532 12.3289 21.755C11.1873 20.6606 10.6107 19.1159 10.6107 17.0943L10.5286 16.9746L10.5305 16.9613ZM16.5079 16.264C16.5079 17.1665 16.7313 17.8828 17.1856 18.4281C17.6362 18.9696 18.2605 19.2413 19.0279 19.2413C19.0947 19.2413 19.1959 19.2261 19.3334 19.2071C19.4823 19.1843 19.5453 19.1691 19.6025 19.1691C20.58 18.9164 21.3245 18.2932 21.8725 17.3033C22.137 16.8558 22.3296 16.3699 22.4433 15.8631C22.5884 15.3539 22.6342 14.9245 22.6552 14.5977C22.6857 14.2823 22.6857 13.737 22.6857 13.0017V12.1448C21.3436 12.1448 20.3185 12.2379 19.6235 12.426C17.5942 13.0017 16.5614 14.2823 16.5614 16.2811L16.506 16.2507V16.264H16.5079ZM31.1048 27.4075C31.1525 27.3106 31.2251 27.2327 31.3129 27.1358C31.8875 26.7539 32.4507 26.486 32.9872 26.3454C33.827 26.1305 34.6868 26.0026 35.553 25.9635C35.7764 25.9445 35.9997 25.9635 36.2135 26.011C37.2425 26.1079 37.8802 26.2789 38.0787 26.5297C38.1799 26.6779 38.22 26.8926 38.22 27.1529V27.3904C38.22 28.1998 37.9966 29.1498 37.5556 30.2442C37.1146 31.3386 36.4999 32.2221 35.7172 32.908C35.6007 33.0011 35.4976 33.0486 35.4041 33.0486C35.3564 33.0486 35.3067 33.0486 35.2628 33.0296C35.1177 32.9593 35.091 32.8396 35.1578 32.6477C36.0188 30.6508 36.4407 29.2524 36.4407 28.4658C36.4407 28.2245 36.393 28.0345 36.2995 27.9167C36.0723 27.6564 35.427 27.5044 34.3522 27.5044C33.8888 27.5113 33.4258 27.536 32.9643 27.5785C32.3858 27.6564 31.8532 27.7267 31.3721 27.797C31.2308 27.797 31.1373 27.7704 31.0857 27.7267C31.038 27.6792 31.0265 27.6526 31.0514 27.6051C31.0514 27.5785 31.0628 27.5576 31.0857 27.5044V27.4113L31.1048 27.4075Z" fill="white"/>
</svg>
