<svg width="35" height="38" viewBox="0 0 35 38" fill="none" xmlns="http://www.w3.org/2000/svg">
<path d="M18.9614 18.1599L25.2233 11.9173L4.99765 0.584851C3.65718 -0.137149 2.40141 -0.238482 1.30023 0.551074L18.9614 18.1599ZM26.2906 25.4685L32.8002 21.8184C34.0708 21.1091 34.7675 20.1042 34.7675 18.9895C34.7675 17.877 34.0708 16.87 32.8023 16.1606L26.9089 12.861L20.2744 19.473L26.2906 25.4685ZM0.211764 2.08585C0.0762351 2.50174 0 2.96618 0 3.47496V34.5189C0 35.3232 0.177882 36.0156 0.499765 36.5666L17.6464 19.4709L0.211764 2.08585ZM18.9614 20.7797L1.91012 37.7805C2.23624 37.9051 2.58776 37.9705 2.95835 37.9705C3.61906 37.9705 4.30729 37.7763 5.00823 37.3879L24.6071 26.4164L18.9614 20.7797Z" fill="white"/>
</svg>
