<svg width="29" height="28" viewBox="0 0 29 28" fill="none" xmlns="http://www.w3.org/2000/svg">
<path d="M11.2778 15.3605C11.2778 14.8664 10.9556 14.537 10.4722 14.537H0.805556C0.322222 14.537 0 14.8664 0 15.3605V23.5958C0 24.0899 0.322222 24.4193 0.805556 24.584L10.4722 25.737C10.9556 25.737 11.2778 25.4075 11.2778 25.0781V15.3605ZM13.6944 14.537C13.2111 14.537 12.8889 14.8664 12.8889 15.3605V25.0781C12.8889 25.5723 13.2111 25.9017 13.6944 26.0664L28.1944 27.7134C28.6778 27.7134 29 27.384 29 27.0546V15.5252C29 15.0311 28.6778 14.7017 28.1944 14.7017L13.6944 14.537ZM11.2778 2.51343C11.2778 2.01932 10.9556 1.6899 10.4722 1.85461L0.805556 3.00755C0.322222 3.00755 0 3.33696 0 3.83108V12.0664C0 12.5605 0.322222 12.8899 0.805556 12.8899H10.4722C10.9556 12.8899 11.2778 12.5605 11.2778 12.0664V2.51343ZM13.6944 1.5252C13.2111 1.5252 12.8889 2.01932 12.8889 2.51343V12.2311C12.8889 12.7252 13.2111 13.0546 13.6944 13.0546H28.1944C28.6778 13.0546 29 12.7252 29 12.2311V0.701668C29 0.207551 28.6778 -0.121861 28.1944 0.0428449L13.6944 1.5252Z" fill="white"/>
</svg>
